<?xml version="1.0" encoding="UTF-8"?>
<!DOCTYPE svg PUBLIC "-//W3C//DTD SVG 1.1//EN" "http://www.w3.org/Graphics/SVG/1.1/DTD/svg11.dtd">
<svg version="1.1" xmlns="http://www.w3.org/2000/svg" xmlns:xlink="http://www.w3.org/1999/xlink" x="0" y="0" width="54" height="58.686" viewBox="0, 0, 54, 58.686">
  <g id="Vector_Graphics">
    <path d="M34.203,-0 C34.563,-0 34.915,0.146 35.17,0.4 C35.425,0.655 35.572,1.008 35.572,1.368 L35.572,15.952 C36.262,17.126 38.814,21.467 41.809,26.738 C45.324,32.926 49.433,40.362 51.856,45.463 C52.549,46.924 53.105,48.192 53.481,49.223 C53.681,49.776 53.83,50.256 53.921,50.707 C53.967,50.942 53.999,51.168 54,51.424 C54,51.503 53.996,51.586 53.987,51.675 C53.913,52.383 53.869,52.978 53.803,53.53 C53.736,54.079 53.653,54.599 53.438,55.135 C53.295,55.489 53.083,55.843 52.807,56.146 C52.438,56.553 51.983,56.854 51.477,57.098 C50.801,57.424 50.01,57.674 48.973,57.959 C48.794,58.007 48.619,58.041 48.422,58.072 C48.225,58.104 48.009,58.132 47.767,58.159 C47.284,58.211 46.703,58.259 46.027,58.301 C44.676,58.388 42.95,58.459 40.966,58.516 C36.997,58.63 32,58.686 27,58.686 C19.968,58.686 12.948,58.574 8.772,58.348 C7.373,58.271 6.307,58.187 5.579,58.072 C5.381,58.041 5.206,58.007 5.027,57.959 C4.153,57.72 3.453,57.502 2.849,57.246 C2.248,56.99 1.722,56.687 1.286,56.245 C0.998,55.954 0.769,55.607 0.612,55.253 C0.402,54.779 0.306,54.31 0.236,53.832 C0.146,53.194 0.102,52.515 0.012,51.675 L0.012,51.677 C0.003,51.586 0,51.503 0,51.424 C0.001,51.168 0.033,50.942 0.079,50.707 C0.127,50.473 0.189,50.234 0.266,49.98 C0.42,49.472 0.631,48.901 0.894,48.259 C1.419,46.977 2.15,45.414 3.023,43.658 C4.767,40.148 7.078,35.872 9.387,31.722 C13.456,24.411 17.518,17.498 18.429,15.953 L18.429,1.368 C18.429,1.008 18.576,0.655 18.83,0.4 C19.085,0.146 19.438,-0 19.798,-0 L34.203,-0 z M32.835,2.736 L21.166,2.736 L21.166,16.326 C21.166,16.572 21.1,16.811 20.974,17.023 C20.974,17.024 20.869,17.203 20.67,17.538 C20.473,17.874 20.184,18.365 19.822,18.985 C19.096,20.226 18.071,21.984 16.88,24.052 C14.499,28.187 11.45,33.565 8.784,38.515 C7.008,41.815 5.402,44.929 4.287,47.338 C3.65,48.711 3.174,49.863 2.928,50.633 C2.796,51.037 2.737,51.346 2.737,51.415 L2.737,51.415 C2.815,52.156 2.859,52.756 2.913,53.207 C2.966,53.665 3.034,53.958 3.097,54.105 C3.139,54.206 3.169,54.251 3.219,54.307 C3.285,54.38 3.415,54.49 3.714,54.635 C4.108,54.828 4.777,55.056 5.747,55.319 C5.775,55.327 5.873,55.349 6.009,55.37 C6.145,55.392 6.323,55.415 6.532,55.439 C6.952,55.484 7.5,55.53 8.149,55.571 C9.447,55.654 11.149,55.724 13.113,55.781 C17.043,55.893 22.022,55.95 27,55.95 C33.998,55.95 41.009,55.837 45.08,55.616 C46.43,55.544 47.471,55.454 47.992,55.37 C48.127,55.349 48.225,55.328 48.253,55.319 C49.072,55.097 49.675,54.902 50.081,54.728 C50.49,54.555 50.68,54.412 50.762,54.327 C50.82,54.267 50.849,54.226 50.89,54.137 C50.943,54.021 51.006,53.8 51.056,53.444 C51.124,52.976 51.172,52.295 51.263,51.416 L51.261,51.385 C51.258,51.356 51.251,51.315 51.242,51.263 C51.222,51.158 51.187,51.014 51.136,50.843 C51.036,50.498 50.875,50.043 50.662,49.512 C50.236,48.448 49.607,47.073 48.841,45.511 C47.308,42.383 45.227,38.49 43.083,34.605 C38.792,26.833 34.24,19.083 33.231,17.371 C33.097,17.143 33.025,17.023 33.025,17.023 C32.9,16.811 32.835,16.572 32.835,16.326 L32.835,2.736 z" fill="#FFFFFF"/>
    <path d="M36.653,49.889 C35.587,49.889 34.722,49.025 34.722,47.958 C34.722,46.893 35.587,46.028 36.653,46.028 C37.719,46.028 38.583,46.893 38.583,47.958 C38.583,49.025 37.719,49.889 36.653,49.889 M31.023,49.503 C30.224,49.503 29.575,48.855 29.575,48.056 C29.575,47.256 30.224,46.608 31.023,46.608 C31.822,46.608 32.471,47.256 32.471,48.056 C32.471,48.855 31.822,49.503 31.023,49.503 M25.071,41.909 C24.006,41.909 23.142,41.047 23.142,39.979 C23.142,38.914 24.006,38.049 25.071,38.049 C26.138,38.049 27.002,38.914 27.002,39.979 C27.002,41.047 26.138,41.909 25.071,41.909 M16.096,45.385 C15.296,45.385 14.648,44.736 14.648,43.937 C14.648,43.137 15.296,42.49 16.096,42.49 C16.895,42.49 17.544,43.137 17.544,43.937 C17.544,44.736 16.895,45.385 16.096,45.385 M47.579,49.226 C47.562,49.133 47.531,49.006 47.487,48.855 C47.398,48.551 47.255,48.15 47.068,47.683 C46.694,46.745 46.139,45.534 45.465,44.16 C44.905,43.017 43.256,39.956 41.403,36.566 L12.633,36.566 C10.345,40.795 8.24,44.746 7.768,45.769 C7.206,46.977 6.787,47.991 6.57,48.669 C6.454,49.026 6.403,49.298 6.403,49.358 L6.403,49.358 C6.471,50.011 6.51,50.539 6.557,50.936 C6.604,51.34 6.664,51.599 6.718,51.727 C6.756,51.817 6.783,51.856 6.827,51.906 C6.885,51.969 6.999,52.067 7.263,52.195 C7.611,52.366 8.199,52.567 9.053,52.798 C9.077,52.805 9.165,52.823 9.284,52.843 C9.404,52.861 9.56,52.883 9.745,52.902 C10.114,52.943 10.597,52.982 11.168,53.019 C12.312,53.092 13.812,53.154 15.541,53.205 C19.002,53.303 22.616,53.353 27,53.353 C33.163,53.353 38.567,53.253 42.152,53.058 C43.341,52.996 44.258,52.917 44.716,52.843 C44.836,52.823 44.923,52.805 44.947,52.798 C45.668,52.602 46.201,52.43 46.557,52.277 C46.917,52.125 47.085,52 47.157,51.925 C47.208,51.87 47.233,51.835 47.268,51.757 C47.317,51.653 47.372,51.459 47.415,51.146 C47.476,50.733 47.518,50.133 47.599,49.359 L47.596,49.332 C47.593,49.308 47.588,49.271 47.579,49.226" fill="#4DB7CA"/>
    <path d="M24.284,31.327 C25.085,31.327 25.732,31.973 25.732,32.775 C25.732,33.574 25.085,34.222 24.284,34.222 C23.484,34.222 22.837,33.574 22.837,32.775 C22.837,31.973 23.484,31.327 24.284,31.327 M32.323,35.279 C31.671,34.884 31.234,34.17 31.234,33.352 C31.234,32.109 32.242,31.101 33.485,31.101 C34.73,31.101 35.737,32.109 35.737,33.352 C35.737,34.17 35.3,34.884 34.648,35.279 L40.684,35.279 C38.254,30.847 35.67,26.2 34.81,24.71 L19.403,24.71 C19.299,24.891 18.951,25.072 18.845,25.257 C17.86,26.968 15.57,31.128 13.317,35.279 z" fill="#FFFFFF"/>
  </g>
</svg>
