<?xml version="1.0" encoding="UTF-8"?>
<!DOCTYPE svg PUBLIC "-//W3C//DTD SVG 1.1//EN" "http://www.w3.org/Graphics/SVG/1.1/DTD/svg11.dtd">
<svg version="1.1" xmlns="http://www.w3.org/2000/svg" xmlns:xlink="http://www.w3.org/1999/xlink" x="0" y="0" width="68" height="69" viewBox="0, 0, 68, 69">
  <g id="Layer_1">
    <path d="M30.132,36.905 L27.542,36.905 L27.542,32.647 L30.132,32.647 z M30.132,44.888 L27.542,44.888 L27.542,40.63 L30.132,40.63 z M30.132,52.872 L27.542,52.872 L27.542,48.614 L30.132,48.614 z M30.132,60.855 L27.542,60.855 L27.542,56.597 L30.132,56.597 z M24.951,36.905 L22.361,36.905 L22.361,32.647 L24.951,32.647 z M24.951,44.888 L22.361,44.888 L22.361,40.63 L24.951,40.63 z M24.951,52.872 L22.361,52.872 L22.361,48.614 L24.951,48.614 z M24.951,60.855 L22.361,60.855 L22.361,56.597 L24.951,56.597 z M31.858,29.098 L20.635,29.098 L20.635,66.533 L30.118,66.533 L30.118,64.403 L31.858,64.403 z" fill="#4DB7CA"/>
    <path d="M57.619,27.334 L56.104,27.334 L56.104,21.828 L57.619,21.828 z M57.619,35.135 L56.104,35.135 L56.104,29.63 L57.619,29.63 z M57.619,42.936 L56.104,42.936 L56.104,37.431 L57.619,37.431 z M57.619,50.738 L56.104,50.738 L56.104,45.233 L57.619,45.233 z M55.381,27.334 L53.865,27.334 L53.865,21.828 L55.381,21.828 z M55.381,35.135 L53.865,35.135 L53.865,29.63 L55.381,29.63 z M55.381,42.936 L53.865,42.936 L53.865,37.431 L55.381,37.431 z M55.381,50.738 L53.865,50.738 L53.865,45.233 L55.381,45.233 z M53.227,27.334 L51.711,27.334 L51.711,21.828 L53.227,21.828 z M53.227,35.135 L51.711,35.135 L51.711,29.63 L53.227,29.63 z M53.227,42.936 L51.711,42.936 L51.711,37.431 L53.227,37.431 z M53.227,50.738 L51.711,50.738 L51.711,45.233 L53.227,45.233 z M50.988,27.334 L49.473,27.334 L49.473,21.828 L50.988,21.828 z M50.988,35.135 L49.473,35.135 L49.473,29.63 L50.988,29.63 z M50.988,42.936 L49.473,42.936 L49.473,37.431 L50.988,37.431 z M50.988,50.738 L49.473,50.738 L49.473,45.233 L50.988,45.233 z M58.627,17.241 L48.464,17.241 L48.464,63.12 L52.582,63.12 L52.582,56.692 L54.51,56.692 L54.51,63.12 L58.627,63.12 z" fill="#4DB7CA"/>
    <path d="M19.428,19.118 L16.213,19.118 L16.213,22.754 L19.428,22.754 z" fill="#4DB7CA"/>
    <path d="M17.009,34.277 L14.985,34.277 L14.985,30.95 L17.009,30.95 z M17.009,39.599 L14.985,39.599 L14.985,36.273 L17.009,36.273 z M17.009,44.922 L14.985,44.922 L14.985,41.595 L17.009,41.595 z M17.009,50.244 L14.985,50.244 L14.985,46.918 L17.009,46.918 z M17.009,55.567 L14.985,55.567 L14.985,52.24 L17.009,52.24 z M15.997,62.264 L12.759,62.264 L12.759,61.31 L15.997,61.31 z M11.748,52.24 L13.771,52.24 L13.771,55.567 L11.748,55.567 z M11.748,46.918 L13.771,46.918 L13.771,50.244 L11.748,50.244 z M11.748,41.595 L13.771,41.595 L13.771,44.922 L11.748,44.922 z M11.748,36.273 L13.771,36.273 L13.771,39.599 L11.748,39.599 z M11.748,30.95 L13.771,30.95 L13.771,34.277 L11.748,34.277 z M19.266,55.567 L18.223,55.567 L18.223,52.24 L19.266,52.24 L19.266,50.244 L18.223,50.244 L18.223,46.918 L19.266,46.918 L19.266,44.922 L18.223,44.922 L18.223,41.595 L19.266,41.595 L19.266,39.599 L18.223,39.599 L18.223,36.273 L19.266,36.273 L19.266,34.277 L18.223,34.277 L18.223,30.95 L19.266,30.95 L19.266,24.83 L9.522,24.83 L9.522,66.611 L17.616,66.611 L17.616,60.046 L19.266,60.046 z" fill="#4DB7CA"/>
    <path d="M30.544,16.062 L37.902,16.062 L37.902,18.107 L30.544,18.107 z M30.544,10.949 L37.902,10.949 L37.902,12.994 L30.544,12.994 z M32.106,23.219 L30.544,23.219 L30.544,21.174 L37.902,21.174 L37.902,22.343 L39.223,22.343 L39.223,7.016 L29.223,7.016 L29.223,27.465 L30.544,27.465 L30.544,26.287 L32.106,26.287 z" fill="#FFFFFF"/>
    <path d="M7.948,30.094 L7.948,32.956 L1.899,32.956 L1.899,34.445 L7.948,34.445 L7.948,36.677 L1.899,36.677 L1.899,38.165 L7.948,38.165 L7.948,40.398 L1.899,40.398 L1.899,41.886 L7.948,41.886 L7.948,44.118 L1.899,44.118 L1.899,45.606 L7.948,45.606 L7.948,47.839 L1.899,47.839 L1.899,49.327 L7.948,49.327 L7.948,51.56 L1.899,51.56 L1.899,53.048 L7.948,53.048 L7.948,61.346 L-0,61.346 L-0,59.373 L0.626,59.373 L0.626,30.094 L7.948,30.094 z" fill="#FFFFFF"/>
    <path d="M52.676,0 L52.676,14.528 L53.997,14.528 L53.997,13.36 L61.355,13.36 L61.355,15.405 L59.794,15.405 L59.794,18.472 L61.355,18.472 L61.355,19.65 L62.676,19.65 L62.676,0 z M53.997,3.135 L61.355,3.135 L61.355,5.18 L53.997,5.18 z M53.997,8.247 L61.355,8.247 L61.355,10.292 L53.997,10.292 z" fill="#FFFFFF"/>
    <path d="M6.491,16.594 L13.848,16.594 L13.848,18.639 L6.491,18.639 z M6.491,11.482 L13.848,11.482 L13.848,13.526 L6.491,13.526 z M8.052,23.752 L6.491,23.752 L6.491,21.706 L13.848,21.706 L13.848,22.875 L15.169,22.875 L15.169,7.549 L5.169,7.549 L5.169,27.997 L6.491,27.997 L6.491,26.819 L8.052,26.819 z" fill="#FFFFFF"/>
    <path d="M64.836,27.781 L59.98,27.781 L59.98,22.168 L64.836,22.168 z" fill="#FFFFFF"/>
    <path d="M67.698,30.36 L67.698,59.639 L68,59.639 L68,61.612 L60.376,61.612 L60.376,53.314 L66.425,53.314 L66.425,51.826 L60.376,51.826 L60.376,49.593 L66.425,49.593 L66.425,48.105 L60.376,48.105 L60.376,45.873 L66.425,45.873 L66.425,44.384 L60.376,44.384 L60.376,42.152 L66.425,42.152 L66.425,40.664 L60.376,40.664 L60.376,38.431 L66.425,38.431 L66.425,36.943 L60.376,36.943 L60.376,34.711 L66.425,34.711 L66.425,33.223 L60.376,33.223 L60.376,30.36 L67.698,30.36 z" fill="#FFFFFF"/>
    <path d="M64.275,59.639 L61.484,59.639 L61.484,55.825 L64.275,55.825 z" fill="#FFFFFF"/>
    <path d="M33.343,24.294 L33.343,66.178 L31.522,66.178 L31.522,69 L33.343,69 L47.129,69 L48.95,69 L48.95,66.178 L47.129,66.178 L47.129,24.294 z M35.164,28.389 L45.308,28.389 L45.308,30.518 L35.164,30.518 z M35.164,33.711 L45.308,33.711 L45.308,35.84 L35.164,35.84 z M35.164,39.033 L45.308,39.033 L45.308,41.162 L35.164,41.162 z M35.164,44.356 L45.308,44.356 L45.308,46.485 L35.164,46.485 z M35.164,49.679 L45.308,49.679 L45.308,51.807 L35.164,51.807 z M35.164,55 L45.308,55 L45.308,57.129 L35.164,57.129 z M38.24,60.722 L42.232,60.722 L42.232,66.177 L38.24,66.177 z" fill="#4DB7CA"/>
  </g>
</svg>
