<?xml version="1.0" encoding="UTF-8"?>
<!DOCTYPE svg PUBLIC "-//W3C//DTD SVG 1.1//EN" "http://www.w3.org/Graphics/SVG/1.1/DTD/svg11.dtd">
<svg version="1.1" xmlns="http://www.w3.org/2000/svg" xmlns:xlink="http://www.w3.org/1999/xlink" x="0" y="0" width="58" height="66.804" viewBox="0, 0, 58, 66.804">
  <g id="Ñëîé_1">
    <path d="M29,-0 C29.442,-0 29.801,0.359 29.801,0.801 L29.801,6.189 L32.86,6.189 L32.86,11.577 L37.357,11.577 L37.357,13.87 C45.251,17.149 50.804,24.931 50.804,34.012 L51.796,34.012 L51.796,42.896 L6.203,42.896 L6.203,34.012 L7.195,34.012 C7.195,24.931 12.748,17.149 20.643,13.87 L20.643,11.577 L25.14,11.577 L25.14,6.189 L28.198,6.189 L28.198,0.801 C28.198,0.359 28.557,-0 29,-0 z M10.544,35.467 L8.387,35.467 L8.387,41.616 L10.544,41.616 L10.544,35.467 z M14.885,35.467 L12.727,35.467 L12.727,41.616 L14.885,41.616 L14.885,35.467 z M19.226,35.467 L17.069,35.467 L17.069,41.616 L19.226,41.616 L19.226,35.467 z M23.567,35.467 L21.41,35.467 L21.41,41.616 L23.567,41.616 L23.567,35.467 z M27.908,35.467 L25.75,35.467 L25.75,41.616 L27.908,41.616 L27.908,35.467 z M32.249,35.467 L30.091,35.467 L30.091,41.616 L32.249,41.616 L32.249,35.467 z M36.59,35.467 L34.432,35.467 L34.432,41.616 L36.59,41.616 L36.59,35.467 z M40.931,35.467 L38.773,35.467 L38.773,41.616 L40.931,41.616 L40.931,35.467 z M45.272,35.467 L43.114,35.467 L43.114,41.616 L45.272,41.616 L45.272,35.467 z M49.613,35.467 L47.456,35.467 L47.456,41.616 L49.613,41.616 L49.613,35.467 z" fill="#4DB7CA"/>
    <path d="M8.902,63.835 L4.876,63.835 L4.876,48.233 L8.902,48.233 z M12.246,48.233 L16.272,48.233 L16.272,63.835 L12.246,63.835 z M19.616,48.233 L23.642,48.233 L23.642,63.835 L19.616,63.835 z M26.986,48.233 L31.013,48.233 L31.013,63.835 L26.986,63.835 z M34.357,48.233 L38.383,48.233 L38.383,63.835 L34.357,63.835 z M41.728,48.233 L45.754,48.233 L45.754,63.835 L41.728,63.835 z M49.098,48.233 L53.124,48.233 L53.124,63.835 L49.098,63.835 z M1.531,45.264 L0,45.264 L0,48.233 L1.531,48.233 L1.531,63.835 L0,63.835 L0,66.804 L1.531,66.804 L56.468,66.804 L58,66.804 L58,63.835 L56.468,63.835 L56.468,48.233 L58,48.233 L58,45.264 L56.468,45.264 L51.796,45.264 L51.796,45.091 L6.203,45.091 L6.203,45.264 z" fill="#FFFFFF"/>
  </g>
</svg>
