<?xml version="1.0" encoding="UTF-8"?>
<!DOCTYPE svg PUBLIC "-//W3C//DTD SVG 1.1//EN" "http://www.w3.org/Graphics/SVG/1.1/DTD/svg11.dtd">
<svg version="1.1" xmlns="http://www.w3.org/2000/svg" xmlns:xlink="http://www.w3.org/1999/xlink" x="0" y="0" width="36" height="63.463" viewBox="0, 0, 36, 63.463">
  <g id="Layer_1">
    <path d="M23.155,11.792 C23.155,14.554 20.862,16.793 18.035,16.793 C15.209,16.793 12.916,14.554 12.916,11.792 C12.916,9.03 15.209,6.792 18.035,6.792 C20.862,6.792 23.155,9.03 23.155,11.792" fill="#FFFFFF"/>
    <path d="M29.938,21.001 C29.43,21.639 29.306,22.602 29.886,23.24 C30.608,23.905 31.671,23.509 32.216,22.824 C37.261,16.117 37.261,7.464 32.216,0.758 C31.671,0.072 30.608,-0.323 29.886,0.342 C29.306,0.98 29.43,1.943 29.938,2.581 C34.137,8.25 34.137,15.333 29.938,21.001" fill="#4DB7CA"/>
    <path d="M10.34,18.149 C10.81,18.789 10.856,19.716 10.301,20.323 C9.586,20.99 8.529,20.6 8.005,19.897 C4.511,14.823 4.511,8.759 8.005,3.685 C8.529,2.982 9.585,2.592 10.301,3.259 C10.857,3.866 10.81,4.793 10.34,5.433 C7.615,9.481 7.615,14.101 10.34,18.149" fill="#4DB7CA"/>
    <path d="M6.061,21.001 C6.569,21.639 6.694,22.602 6.114,23.24 C5.391,23.905 4.33,23.509 3.784,22.824 C-1.261,16.117 -1.261,7.464 3.784,0.758 C4.33,0.072 5.391,-0.323 6.114,0.342 C6.694,0.98 6.569,1.943 6.061,2.581 C1.864,8.25 1.863,15.333 6.061,21.001" fill="#4DB7CA"/>
    <path d="M25.66,18.149 C25.189,18.789 25.143,19.716 25.699,20.323 C26.414,20.99 27.471,20.6 27.996,19.897 C31.489,14.823 31.489,8.759 27.996,3.685 C27.471,2.982 26.414,2.592 25.699,3.259 C25.143,3.866 25.189,4.793 25.66,5.433 C28.385,9.481 28.385,14.101 25.66,18.149" fill="#4DB7CA"/>
    <path d="M17.091,24.211 L17.091,26.751 L16.841,34.264 L14.22,34.066 z M18.961,24.212 L21.831,34.063 L19.211,34.261 L18.961,26.765 z M24.647,35.246 L19.247,19.402 L18.961,19.402 L17.091,19.402 L16.805,19.402 L11.405,35.246 z" fill="#FFFFFF"/>
    <path d="M19.895,52.691 L19.716,47.336 L25.562,46.933 L27.015,51.921 z M19.42,38.434 L23.006,38.162 L24.638,43.763 L19.609,44.11 z M16.462,44.105 L11.434,43.758 L13.064,38.165 L16.651,38.437 z M16.176,52.682 L9.058,51.913 L10.51,46.928 L16.354,47.331 z M10.846,36.57 L1.681,63.463 L5.692,63.463 L8.145,55.047 L16.069,55.904 L15.816,63.463 L17.021,63.463 L19.051,63.463 L20.254,63.463 L20.002,55.912 L27.928,55.055 L30.378,63.463 L34.39,63.463 L25.224,36.57 z" fill="#4DB7CA"/>
  </g>
</svg>
