<?xml version="1.0" encoding="UTF-8"?>
<!DOCTYPE svg PUBLIC "-//W3C//DTD SVG 1.1//EN" "http://www.w3.org/Graphics/SVG/1.1/DTD/svg11.dtd">
<svg version="1.1" xmlns="http://www.w3.org/2000/svg" xmlns:xlink="http://www.w3.org/1999/xlink" x="0" y="0" width="68" height="61.426" viewBox="0, 0, 68, 61.426">
  <g id="Ñëîé_1">
    <path d="M35.904,52.223 C38.446,52.223 40.506,54.283 40.506,56.824 C40.498,59.379 38.417,61.362 35.906,61.426 L35.903,61.426 C33.348,61.418 31.366,59.335 31.302,56.824 C31.302,54.283 33.363,52.223 35.904,52.223 z" fill="#4DB7CA"/>
    <path d="M49.206,52.223 C51.748,52.223 53.808,54.283 53.808,56.824 C53.801,59.379 51.719,61.362 49.208,61.426 L49.205,61.426 C46.65,61.418 44.668,59.335 44.605,56.824 C44.605,54.283 46.665,52.223 49.206,52.223 z" fill="#4DB7CA"/>
    <path d="M57.949,26.931 L52.156,26.931 L53.026,22.36 L59.612,22.36 z M55.101,34.752 L50.667,34.752 L51.747,29.082 L57.165,29.082 z M42.981,26.931 L42.981,22.36 L50.836,22.36 L49.966,26.931 z M48.477,34.752 L42.981,34.752 L42.981,29.082 L49.557,29.082 z M40.83,26.931 L34.041,26.931 L33.146,22.36 L40.83,22.36 z M40.83,34.752 L35.574,34.752 L34.463,29.082 L40.83,29.082 z M28.709,34.752 L26.645,29.082 L32.271,29.082 L33.382,34.752 z M24.198,22.36 L30.953,22.36 L31.849,26.931 L25.862,26.931 z M60.396,20.209 L53.436,20.209 L53.602,19.333 L51.412,19.333 L51.246,20.209 L42.981,20.209 L42.981,19.333 L40.83,19.333 L40.83,20.209 L32.724,20.209 L32.552,19.333 L30.36,19.333 L30.532,20.209 L23.415,20.209 L23.096,19.333 L18.178,19.333 L24.766,37.432 C24.78,37.47 24.796,37.506 24.811,37.543 L28.889,48.747 C29.337,49.979 30.42,50.751 31.473,50.681 C31.522,50.684 31.571,50.688 31.621,50.688 L49.099,50.688 L49.099,50.689 L54.283,50.689 C55.559,50.689 56.594,49.654 56.594,48.378 C56.594,47.101 55.559,46.067 54.283,46.067 L49.099,46.067 L49.099,46.067 L32.832,46.067 L30.395,39.374 L56.502,39.374 C56.54,39.374 56.578,39.37 56.615,39.368 C57.591,39.434 58.509,38.906 58.836,38.006 L65.633,19.333 L60.714,19.333 z" fill="#4DB7CA"/>
    <path d="M14.183,0 C14.254,0 14.323,0.005 14.392,0.011 C15.464,-0.094 16.581,0.686 17.038,1.941 L19.518,8.753 L65.422,8.753 C65.447,8.753 65.472,8.756 65.497,8.757 C65.806,8.745 66.125,8.79 66.439,8.904 C67.638,9.34 68.283,10.593 67.88,11.702 L65.503,18.232 L60.585,18.232 L62.353,13.375 L54.397,13.375 L53.473,18.232 L51.283,18.232 L52.207,13.375 L42.852,13.375 L42.852,18.232 L40.7,18.232 L40.7,13.375 L31.471,13.375 L32.423,18.232 L30.231,18.232 L29.279,13.375 L21.199,13.375 L22.967,18.232 L18.049,18.232 L13.095,4.622 L2.311,4.622 C0.979,4.581 0.066,3.623 -0,2.312 L-0,2.31 C0.041,0.979 1,0.066 2.311,0 L14.183,0 z" fill="#FFFFFF"/>
  </g>
</svg>
