<?xml version="1.0" encoding="UTF-8"?>
<!DOCTYPE svg PUBLIC "-//W3C//DTD SVG 1.1//EN" "http://www.w3.org/Graphics/SVG/1.1/DTD/svg11.dtd">
<svg version="1.1" xmlns="http://www.w3.org/2000/svg" xmlns:xlink="http://www.w3.org/1999/xlink" x="0" y="0" width="68" height="69.271" viewBox="0, 0, 68, 69.271">
  <g id="Layer_1">
    <path d="M34.002,-0 C53.1,0.254 67.52,15.073 68,34 C68,34.4 67.99,34.798 67.977,35.196 L0.023,35.196 C0.01,34.798 0,34.4 0,34 C0.254,14.903 15.071,0.48 33.999,-0 L34.002,-0 z M55.428,12.588 C54.005,13.782 52.48,14.861 50.87,15.808 C52.826,20.833 53.931,26.659 54.062,32.769 L64.281,32.769 C63.965,24.906 60.641,17.803 55.428,12.588 z M48.684,16.986 C44.597,18.997 40.043,20.196 35.231,20.371 L35.231,32.769 L51.6,32.769 C51.473,27.076 50.464,21.662 48.684,16.986 z M19.316,16.986 C17.537,21.662 16.527,27.076 16.4,32.769 L32.769,32.769 L32.769,20.371 C27.957,20.196 23.403,18.997 19.316,16.986 z M12.571,12.588 C7.359,17.804 4.035,24.906 3.72,32.769 L13.938,32.769 C14.07,26.66 15.174,20.833 17.131,15.808 C15.52,14.861 13.995,13.783 12.571,12.588 z M32.769,3.72 C31.755,3.76 30.754,3.851 29.767,3.99 C26.78,5.3 24.016,7.994 21.734,11.886 C21.208,12.783 20.723,13.731 20.271,14.714 C24.063,16.601 28.295,17.732 32.769,17.908 L32.769,3.72 z M35.231,3.72 L35.231,17.908 C39.705,17.732 43.938,16.603 47.73,14.715 C47.278,13.731 46.793,12.783 46.266,11.886 C43.985,7.994 41.221,5.3 38.233,3.99 C37.247,3.851 36.245,3.76 35.231,3.72 z M44.644,5.624 C45.995,7.023 47.252,8.7 48.39,10.641 C48.928,11.56 49.426,12.526 49.893,13.527 C51.195,12.744 52.435,11.867 53.604,10.907 C50.966,8.664 47.941,6.864 44.644,5.624 z M23.356,5.624 C20.059,6.865 17.034,8.664 14.396,10.907 C15.564,11.868 16.805,12.743 18.108,13.527 C18.574,12.526 19.072,11.559 19.61,10.641 C20.748,8.7 22.006,7.023 23.356,5.624 z" fill="#FFFFFF"/>
    <path d="M3.742,36.857 C4.143,44.578 7.438,51.547 12.572,56.684 C13.996,55.489 15.52,54.41 17.131,53.463 C15.212,48.536 14.115,42.837 13.95,36.857 L16.415,36.857 C16.575,42.42 17.574,47.707 19.316,52.285 C23.403,50.274 27.957,49.075 32.769,48.9 L32.769,36.857 L35.231,36.857 L35.231,48.9 C40.043,49.075 44.597,50.274 48.684,52.285 C50.426,47.707 51.425,42.42 51.586,36.857 L54.051,36.857 C53.885,42.837 52.788,48.536 50.87,53.463 C52.48,54.41 54.005,55.489 55.428,56.684 C60.562,51.547 63.857,44.578 64.257,36.857 L67.962,36.857 C66.874,55.288 52.306,68.82 34.006,69.271 L33.994,69.271 C15.538,69.04 1.331,55.116 0.038,36.857 L3.742,36.857 z M32.769,51.363 C28.295,51.539 24.063,52.67 20.271,54.558 C20.723,55.54 21.208,56.488 21.734,57.385 C24.016,61.278 26.779,63.971 29.767,65.281 C30.753,65.42 31.755,65.511 32.769,65.551 L32.769,51.363 z M35.231,51.363 L35.231,65.551 C36.245,65.511 37.247,65.42 38.233,65.281 C41.221,63.971 43.984,61.278 46.266,57.385 C46.792,56.488 47.277,55.54 47.73,54.557 C43.937,52.669 39.705,51.539 35.231,51.363 z M18.108,55.744 C16.806,56.528 15.566,57.405 14.398,58.366 C17.035,60.608 20.06,62.407 23.356,63.647 C22.006,62.248 20.748,60.57 19.61,58.63 C19.072,57.712 18.574,56.745 18.108,55.744 z M49.892,55.745 C49.426,56.745 48.928,57.712 48.39,58.63 C47.252,60.57 45.994,62.248 44.644,63.647 C47.94,62.407 50.965,60.608 53.602,58.366 C52.434,57.405 51.194,56.528 49.892,55.745 z" fill="#4DB7CA"/>
  </g>
</svg>
